<?xml version="1.0" encoding="UTF-8"?>
<svg width="752pt" height="752pt" version="1.1" viewBox="0 0 752 752" xmlns="http://www.w3.org/2000/svg">
 <g>
  <path d="m222.62 565.43h306.77c19.875 0 36.047-16.172 36.047-36.051v-61.523c0-7.0234-0.4375-14.129-1.3047-21.109l-11.801-95.207c-3.4883-33.176-30.562-58.367-63.57-59.855-0.37109-58.02-50.422-105.12-111.91-105.12-61.457 0-111.49 47.055-111.9 105.04-33.762 0.67969-61.699 26.164-65.27 59.887l-11.809 95.254c-0.86328 6.9766-1.3008 14.082-1.3008 21.105v61.523c0 19.879 16.168 36.051 36.047 36.051zm154.23-369.39c56.211 0 101.97 42.773 102.43 95.508h-14.832c-0.45312-45.332-39.551-82.09-87.598-82.09-48.043 0-87.145 36.758-87.598 82.09h-14.836c0.45703-52.734 46.223-95.508 102.43-95.508zm78.125 95.508h-156.25c0.45703-40.113 35.305-72.617 78.125-72.617 42.816 0 77.664 32.508 78.121 72.617zm-258.94 176.31c0-6.6367 0.41406-13.348 1.2305-19.941l11.812-95.293c0.003907-0.027344 0.007813-0.058594 0.011719-0.085938 3.0859-29.367 27.688-51.516 57.219-51.516h219.38c29.531 0 54.133 22.148 57.23 51.605l11.812 95.293c0.81641 6.5898 1.2305 13.301 1.2305 19.938v61.523c0 14.656-11.922 26.578-26.574 26.578h-306.77c-14.652 0-26.578-11.922-26.578-26.578z"/>
  <path d="m326.15 513.38h99.695c19.855 0 36.008-16.156 36.008-36.008l0.003907-83.762c0-2.6172-2.1211-4.7344-4.7344-4.7344l-162.25-0.003906c-2.6172 0-4.7344 2.1172-4.7344 4.7344v83.762c0 19.855 16.152 36.012 36.008 36.012zm-26.539-115.04h152.77v79.023c0 14.633-11.902 26.539-26.539 26.539h-99.695c-14.633 0-26.539-11.902-26.539-26.539z"/>
  <path d="m316.21 432.83h15.926c2.6172 0 4.7344-2.1172 4.7344-4.7344 0-2.6172-2.1211-4.7344-4.7344-4.7344l-15.926-0.003906c-2.6172 0-4.7344 2.1172-4.7344 4.7344 0 2.6211 2.1211 4.7383 4.7344 4.7383z"/>
  <path d="m350.77 432.83h15.926c2.6172 0 4.7344-2.1172 4.7344-4.7344 0-2.6172-2.1211-4.7344-4.7344-4.7344h-15.926c-2.6172 0-4.7344 2.1172-4.7344 4.7344 0 2.6172 2.1172 4.7344 4.7344 4.7344z"/>
  <path d="m385.34 432.83h15.922c2.6172 0 4.7344-2.1172 4.7344-4.7344 0-2.6172-2.1211-4.7344-4.7344-4.7344h-15.922c-2.6172 0-4.7344 2.1172-4.7344 4.7344 0 2.6172 2.1211 4.7344 4.7344 4.7344z"/>
  <path d="m419.9 432.83h15.922c2.6172 0 4.7344-2.1172 4.7344-4.7344 0-2.6172-2.1211-4.7344-4.7344-4.7344h-15.922c-2.6172 0-4.7344 2.1172-4.7344 4.7344-0.003906 2.6172 2.1172 4.7344 4.7344 4.7344z"/>
 </g>
</svg>
