<?xml version="1.0" encoding="UTF-8"?>
<svg width="752pt" height="752pt" version="1.1" viewBox="0 0 752 752" xmlns="http://www.w3.org/2000/svg">
 <g>
  <path d="m281.59 547.55h11.734v13.133c0 2.6172 2.1211 4.7344 4.7344 4.7344 2.6172 0 4.7344-2.1211 4.7344-4.7344v-13.133h146.41v13.133c0 2.6172 2.1211 4.7344 4.7344 4.7344 2.6172 0 4.7344-2.1211 4.7344-4.7344v-13.133h11.734c18.23 0 33.066-14.832 33.066-33.062v-261.39c0-18.23-14.836-33.062-33.066-33.062h-40.203v-8.6289c0-13.699-11.145-24.848-24.848-24.848h-58.715c-13.699 0-24.848 11.145-24.848 24.848v8.6289h-40.207c-18.23 0-33.066 14.832-33.066 33.062v261.39c0 18.234 14.836 33.066 33.066 33.066zm212.41-135.25h-236.01v-57.027h236.01zm-236.01 9.4727h236.01v57.027l-236.01-0.003906zm73.273-210.38c0-8.4766 6.8984-15.375 15.375-15.375h58.715c8.4766 0 15.375 6.8984 15.375 15.375v8.6289h-89.465zm-49.68 18.102h188.82c13.008 0 23.594 10.582 23.594 23.59v92.715h-236.01v-92.715c0-13.004 10.586-23.59 23.594-23.59zm-23.594 258.77h236.01v26.215c0 13.008-10.582 23.59-23.594 23.59h-188.82c-13.008 0-23.594-10.582-23.594-23.59z"/>
  <path d="m345.16 307.91h61.684c2.6172 0 4.7344-2.1211 4.7344-4.7344v-33.152c0-2.6172-2.1211-4.7344-4.7344-4.7344h-61.684c-2.6172 0-4.7344 2.1211-4.7344 4.7344v33.152c-0.003906 2.6133 2.1172 4.7344 4.7344 4.7344zm4.7344-33.152h52.215v23.68h-52.215z"/>
 </g>
</svg>
