<svg xmlns="http://www.w3.org/2000/svg" xmlns:xlink="http://www.w3.org/1999/xlink" width="23" height="23" viewBox="0 0 23 23">
  <defs>
    <clipPath id="clip-path">
      <rect id="Rectangle_8" data-name="Rectangle 8" width="23" height="23" transform="translate(325.267 15.267)" fill="#99a1a7" stroke="#707070" stroke-width="1"/>
    </clipPath>
  </defs>
  <g id="Mask_Group_2" data-name="Mask Group 2" transform="translate(-325.267 -15.267)" clip-path="url(#clip-path)">
    <g id="shoppingbag" transform="translate(327.486 15.267)">
      <path id="Path_8" data-name="Path 8" d="M17.748,29.321q-3.238,0-6.477,0a2.806,2.806,0,0,1-2-.653,2.288,2.288,0,0,1-.77-1.845c.075-1.737.186-3.471.28-5.208s.157-3.45.283-5.172a2.375,2.375,0,0,1,2.6-2.326c3.19-.008,6.382,0,9.572,0,.9,0,1.8-.009,2.7,0a2.406,2.406,0,0,1,2.552,2.392c.2,3.341.394,6.682.566,10.025a2.458,2.458,0,0,1-2.724,2.786C22.137,29.326,19.942,29.321,17.748,29.321Zm.036-1.28c2.172,0,4.343,0,6.515,0,1.075,0,1.518-.451,1.463-1.507-.084-1.63-.189-3.26-.282-4.89-.1-1.665-.184-3.331-.282-5a1.146,1.146,0,0,0-1.08-1.24c-.166-.016-.335-.014-.5-.014H12.06c-1.369,0-1.688.3-1.754,1.65-.061,1.253-.117,2.505-.185,3.757-.106,1.937-.235,3.873-.324,5.811-.044.974.379,1.386,1.363,1.43.1,0,.191,0,.288,0Z" transform="translate(-8.501 -6.323)" fill="#99a1a7"/>
      <path id="Path_9" data-name="Path 9" d="M15.541,17.691a1.154,1.154,0,0,1,1.152,1.169,1.164,1.164,0,1,1-2.327-.029A1.143,1.143,0,0,1,15.541,17.691Z" transform="translate(-9.909 -7.456)" fill="#99a1a7"/>
      <path id="Path_10" data-name="Path 10" d="M25.173,17.691a1.154,1.154,0,0,1,1.152,1.169A1.164,1.164,0,1,1,24,18.831,1.141,1.141,0,0,1,25.173,17.691Z" transform="translate(-12.223 -7.456)" fill="#99a1a7"/>
      <path id="Path_11" data-name="Path 11" d="M16.323,15.591c0-1.549-.026-5.266.008-6.814a3.134,3.134,0,0,1,2.27-3,3.2,3.2,0,0,1,3.461,1.143,2.8,2.8,0,0,1,.528,1.605c.033,1.633.015,5.434.039,7.067h1.352c0-1.565,0-5.3-.019-6.861a4.421,4.421,0,0,0-.779-2.569,4.557,4.557,0,0,0-5.01-1.672,4.5,4.5,0,0,0-3.192,4.279c-.018,1.552-.011,5.271-.007,6.823Z" transform="translate(-10.194 -4.291)" fill="#99a1a7"/>
    </g>
  </g>
</svg>
