<svg xmlns="http://www.w3.org/2000/svg" xmlns:xlink="http://www.w3.org/1999/xlink" width="19" height="19" viewBox="0 0 19 19">
  <defs>
    <clipPath id="clip-path">
      <rect id="Rectangle_5" data-name="Rectangle 5" width="19" height="19" transform="translate(240 -3)" fill="#99a1a7" stroke="#707070" stroke-width="1"/>
    </clipPath>
  </defs>
  <g id="Min_Profil" data-name="Min Profil" transform="translate(-240 3)" clip-path="url(#clip-path)">
    <g id="MinProfil_v5" transform="translate(240.955 -3)">
      <path id="Path_5" data-name="Path 5" d="M25.034,26.112a7.39,7.39,0,0,0-7.395-7.395h-2.3a7.39,7.39,0,0,0-7.395,7.395H9.176a6.167,6.167,0,0,1,6.162-6.162h2.3A6.167,6.167,0,0,1,23.8,26.112Z" transform="translate(-7.944 -7.112)" fill="#99a1a7"/>
      <g id="Group_3" data-name="Group 3" transform="translate(3.358)">
        <path id="Path_6" data-name="Path 6" d="M17.019,15.663a5.192,5.192,0,1,1,5.186-5.2h0A5.187,5.187,0,0,1,17.019,15.663Zm0-9.151a3.964,3.964,0,1,0,3.954,3.975,3.958,3.958,0,0,0-3.954-3.975Z" transform="translate(-11.832 -5.28)" fill="#99a1a7"/>
      </g>
    </g>
  </g>
</svg>
