<?xml version="1.0" encoding="UTF-8"?>
<svg width="752pt" height="752pt" version="1.1" viewBox="0 0 752 752" xmlns="http://www.w3.org/2000/svg">
 <g>
  <path d="m565.43 238.66h-378.86c-6.2812 0-12.305 2.4922-16.746 6.9336-4.4414 4.4414-6.9336 10.465-6.9336 16.746v227.32c0 6.2812 2.4922 12.305 6.9336 16.746 4.4414 4.4375 10.465 6.9336 16.746 6.9336h378.86c6.2812 0 12.305-2.4961 16.742-6.9336 4.4414-4.4414 6.9375-10.465 6.9375-16.746v-227.32c0-6.2812-2.4961-12.305-6.9375-16.746-4.4375-4.4414-10.461-6.9336-16.742-6.9336zm-378.86 9.4688h378.86c7.8477 0 14.207 6.3633 14.207 14.211v4.7344h-407.28v-4.7344c0-7.8477 6.3594-14.211 14.207-14.211zm28.414 30.781v35.523c0 1.3047-1.0625 2.3672-2.3672 2.3672-1.3086 0-2.3672-1.0625-2.3672-2.3672v-35.52zm-14.207 21.312h-28.414v-23.676h28.414zm23.68-23.68 355.18 0.003906v23.68l-355.18-0.003907zm340.98 227.32h-378.86c-7.8477 0-14.207-6.3594-14.207-14.207v-179.96h28.414v4.7383c0 6.5391 5.3008 11.84 11.84 11.84 6.5391 0 11.84-5.3008 11.84-11.84v-4.7383h355.18v179.96c0 7.8477-6.3594 14.207-14.207 14.207z"/>
  <path d="m541.75 437.57h-37.887c-5.2305 0-9.4688 4.2422-9.4688 9.4727v18.941c0 2.5117 0.99609 4.9219 2.7734 6.6992 1.7734 1.7773 4.1836 2.7734 6.6953 2.7734h37.887c2.5117 0 4.9219-0.99609 6.6992-2.7734 1.7734-1.7773 2.7734-4.1875 2.7734-6.6992v-18.941c0-2.5117-1-4.9219-2.7734-6.6992-1.7773-1.7734-4.1875-2.7734-6.6992-2.7734zm-37.887 28.414v-18.941h37.887v18.941z"/>
 </g>
</svg>
