<?xml version="1.0" encoding="UTF-8"?>
<svg width="752pt" height="752pt" version="1.1" viewBox="0 0 752 752" xmlns="http://www.w3.org/2000/svg">
 <g>
  <path d="m409.15 200.78v-9.4727c0-7.5352-2.9922-14.762-8.3242-20.094-5.3281-5.3281-12.555-8.3203-20.09-8.3203h-9.4727c-7.5352 0-14.762 2.9922-20.094 8.3203-5.3281 5.332-8.3203 12.559-8.3203 20.094v9.4727c-26.379 0-51.672 10.477-70.324 29.129-18.652 18.648-29.129 43.945-29.129 70.32v255.73c0 8.793 3.4922 17.227 9.7109 23.441 6.2148 6.2188 14.648 9.7109 23.441 9.7109h198.9c8.793 0 17.223-3.4922 23.441-9.7109 6.2188-6.2148 9.7109-14.648 9.7109-23.441v-255.73c0-26.375-10.48-51.672-29.129-70.32-18.652-18.652-43.949-29.129-70.324-29.129zm-56.828-9.4727c0-5.0234 1.9922-9.8438 5.5469-13.395 3.5508-3.5547 8.3711-5.5469 13.395-5.5469h9.4727c5.0234 0 9.8398 1.9922 13.395 5.5469 3.5508 3.5508 5.5469 8.3711 5.5469 13.395v9.4727h-47.355zm146.81 364.66c0 6.2812-2.4961 12.305-6.9375 16.746-4.4375 4.4375-10.461 6.9336-16.742 6.9336h-198.9c-6.2812 0-12.305-2.4961-16.746-6.9336-4.4414-4.4414-6.9336-10.465-6.9336-16.746v-255.73c0-23.863 9.4805-46.75 26.355-63.625 16.871-16.875 39.762-26.352 63.625-26.352h66.301c23.863 0 46.75 9.4766 63.625 26.352s26.355 39.762 26.355 63.625z"/>
  <path d="m295.49 380.74c-6.2812 0-12.301 2.4922-16.742 6.9336s-6.9375 10.465-6.9375 16.746v127.86c0 6.2812 2.4961 12.305 6.9375 16.746s10.461 6.9336 16.742 6.9336h161.02c6.2773 0 12.301-2.4922 16.742-6.9336s6.9336-10.465 6.9336-16.746v-127.86c0-6.2812-2.4922-12.305-6.9336-16.746s-10.465-6.9336-16.742-6.9336zm161.02 165.75h-161.02c-7.8477 0-14.207-6.3633-14.207-14.211v-99.449h14.207v28.414c0 6.5391 5.3008 11.84 11.84 11.84 6.5391 0 11.84-5.3008 11.84-11.84v-28.414h151.55v99.449c0 7.8477-6.3633 14.211-14.207 14.211zm-146.81-111.29v26.047c0 1.3086-1.0586 2.3672-2.3672 2.3672-1.3086 0-2.3672-1.0586-2.3672-2.3672v-26.047zm161.02-30.781v18.941h-189.43v-18.941c0-7.8477 6.3594-14.211 14.207-14.211h161.02c7.8438 0 14.207 6.3633 14.207 14.211z"/>
  <path d="m447.04 494.4h-37.887c-5.2305 0-9.4727 4.2383-9.4727 9.4688v18.945c0 2.5117 1 4.9219 2.7734 6.6953 1.7773 1.7773 4.1875 2.7734 6.6992 2.7734h37.887c2.5117 0 4.9219-0.99609 6.6953-2.7734 1.7773-1.7734 2.7773-4.1836 2.7773-6.6953v-18.945c0-2.5117-1-4.9219-2.7773-6.6953-1.7734-1.7773-4.1836-2.7734-6.6953-2.7734zm-37.887 28.414v-18.945h37.887v18.941z"/>
  <path d="m365.96 316.14c5.5469 5.5391 14.535 5.5391 20.082 0l20.078-20.078c5.5391-5.5469 5.5391-14.535 0-20.082l-20.078-20.078c-2.6992-2.5938-6.2969-4.043-10.043-4.043-3.7422 0-7.3398 1.4492-10.039 4.043l-20.078 20.078c-5.543 5.5469-5.543 14.535 0 20.082zm-13.402-33.48 20.082-20.082c0.88672-0.89453 2.0977-1.3984 3.3594-1.3984 1.2656 0 2.4766 0.50391 3.3633 1.3984l20.316 20.082c0.89844 0.88672 1.4023 2.0977 1.4023 3.3594 0 1.2656-0.50391 2.4766-1.4023 3.3633l-20.316 20.316c-0.88672 0.89844-2.0977 1.4023-3.3633 1.4023-1.2617 0-2.4727-0.50391-3.3594-1.4023l-20.078-20.078h-0.003906c-0.89453-0.89062-1.3984-2.1016-1.3984-3.3633 0-1.2617 0.50391-2.4727 1.3984-3.3633z"/>
 </g>
</svg>
