<svg xmlns="http://www.w3.org/2000/svg" xmlns:xlink="http://www.w3.org/1999/xlink" width="19" height="19" viewBox="0 0 19 19">
  <defs>
    <clipPath id="clip-path">
      <rect id="Rectangle_4" data-name="Rectangle 4" width="19" height="19" transform="translate(197 20)" fill="#99a1a7"/>
    </clipPath>
  </defs>
  <g id="Søg" transform="translate(-197 -20)" clip-path="url(#clip-path)">
    <g id="search_v1" transform="translate(193.604 16.604)">
      <path id="Path_4" data-name="Path 4" d="M10.51,17.661a7.047,7.047,0,0,0,4.615-1.71l6.255,6.271a.593.593,0,0,0,.84-.838l-6.26-6.275a7.151,7.151,0,0,0-.418-9.621,7.1,7.1,0,0,0-10.063,0,7.152,7.152,0,0,0,0,10.086A7.057,7.057,0,0,0,10.51,17.661ZM6.319,6.324a5.915,5.915,0,0,1,8.382,0,5.962,5.962,0,0,1,0,8.408,5.915,5.915,0,0,1-8.382,0A5.962,5.962,0,0,1,6.319,6.324Z" fill="#99a1a7"/>
    </g>
  </g>
</svg>
