<?xml version="1.0" encoding="UTF-8"?>
<svg width="752pt" height="752pt" version="1.1" viewBox="0 0 752 752" xmlns="http://www.w3.org/2000/svg">
 <g>
  <path d="m537.02 281.29h-99.453v-4.7344c0-11.305-4.4883-22.148-12.484-30.141-7.9922-7.9922-18.832-12.484-30.137-12.484h-37.887c-11.305 0-22.145 4.4922-30.141 12.484-7.9922 7.9922-12.48 18.836-12.48 30.141v4.7344h-99.453c-13.816 0-27.066 5.4883-36.836 15.258-9.7695 9.7695-15.258 23.02-15.258 36.836v123.13c0 13.816 5.4883 27.066 15.258 36.836 9.7695 9.7695 23.02 15.258 36.836 15.258h322.04c13.816 0 27.066-5.4883 36.836-15.258 9.7695-9.7695 15.258-23.02 15.258-36.836v-123.13c0-13.816-5.4883-27.066-15.258-36.836s-23.02-15.258-36.836-15.258zm-213.11-4.7344c0-8.793 3.4922-17.227 9.7109-23.441 6.2188-6.2188 14.648-9.7109 23.441-9.7109h37.887c8.793 0 17.223 3.4922 23.441 9.7109 6.2148 6.2148 9.707 14.648 9.707 23.441v4.7344h-104.19zm-108.92 222.58c-11.305 0-22.145-4.4922-30.141-12.484-7.9922-7.9922-12.48-18.836-12.48-30.137v-123.13c0-11.305 4.4883-22.145 12.48-30.137 7.9961-7.9961 18.836-12.484 30.141-12.484h47.359v208.38zm56.828 0v-208.38h18.941l0.003906 208.38zm28.414 0v-208.38h151.55v208.38zm161.02 0 0.003906-208.38h18.941v208.38zm118.39-42.621h0.003906c0 11.301-4.4883 22.145-12.484 30.137-7.9922 7.9922-18.832 12.484-30.137 12.484h-47.359v-208.38h47.359c11.305 0 22.145 4.4883 30.137 12.484 7.9961 7.9922 12.484 18.832 12.484 30.137z"/>
  <path d="m394.95 376h-37.887c-5.2305 0-9.4727 4.2422-9.4727 9.4727v18.945c0 2.5117 1 4.918 2.7734 6.6953 1.7773 1.7773 4.1875 2.7734 6.6992 2.7734h37.887c2.5117 0 4.9219-0.99609 6.6953-2.7734 1.7773-1.7773 2.7773-4.1836 2.7773-6.6953v-18.945c0-2.5117-1-4.9219-2.7773-6.6953-1.7734-1.7773-4.1836-2.7773-6.6953-2.7773zm-37.887 28.414v-18.941h37.887v18.941z"/>
 </g>
</svg>
